<?xml version="1.0" standalone="no"?>
<!DOCTYPE svg PUBLIC "-//W3C//DTD SVG 20010904//EN"
 "http://www.w3.org/TR/2001/REC-SVG-20010904/DTD/svg10.dtd">
<svg version="1.0" xmlns="http://www.w3.org/2000/svg"
 width="1415.000000pt" height="1415.000000pt" viewBox="0 0 1415.000000 1415.000000"
 preserveAspectRatio="xMidYMid meet">

<g transform="translate(0.000000,1415.000000) scale(0.100000,-0.100000)"
fill="#000000" stroke="none">
<path d="M4603 5130 c-102 -52 -94 -190 16 -237 81 -35 171 29 171 122 0 101
-97 160 -187 115z"/>
<path d="M5595 5136 c-56 -25 -80 -62 -80 -121 0 -43 5 -59 25 -80 88 -96 230
-45 230 82 0 41 -28 96 -57 111 -34 19 -87 22 -118 8z"/>
<path d="M9345 5136 c-56 -25 -80 -62 -80 -121 0 -43 5 -59 25 -80 88 -95 230
-45 230 80 0 93 -94 158 -175 121z"/>
<path d="M3371 4658 c-23 -266 -45 -495 -47 -510 l-6 -28 120 0 119 0 6 53 c3
28 13 158 23 287 9 129 20 238 23 242 3 4 44 -102 90 -235 46 -133 93 -266
103 -294 l19 -53 69 0 68 0 52 148 c28 81 74 213 102 294 28 82 54 146 56 143
4 -3 49 -509 52 -577 0 -5 54 -8 121 -8 110 0 120 2 116 18 -3 9 -25 239 -48
510 l-44 492 -126 0 -126 0 -109 -285 c-60 -157 -112 -285 -115 -285 -3 0 -54
128 -114 285 l-110 285 -126 0 -125 0 -43 -482z"/>
<path d="M7870 4630 l0 -510 120 0 120 0 0 190 0 190 107 0 c126 0 191 17 260
69 72 55 107 131 111 240 5 116 -19 182 -90 245 -82 75 -134 86 -404 86 l-224
0 0 -510z m394 306 c52 -21 76 -60 76 -120 0 -86 -42 -119 -163 -132 l-67 -7
0 137 0 136 60 0 c33 0 75 -6 94 -14z"/>
<path d="M10500 4876 l0 -115 -47 -3 -48 -3 -3 -82 -3 -83 51 0 50 0 0 -156
c0 -89 5 -173 11 -195 35 -115 156 -165 300 -123 30 9 57 18 60 20 4 2 -5 43
-21 91 -19 62 -31 87 -41 84 -82 -22 -89 -11 -89 150 l0 129 65 0 65 0 0 85 0
85 -65 0 -65 0 0 115 0 115 -110 0 -110 0 0 -114z"/>
<path d="M5056 4750 c-96 -38 -143 -108 -134 -201 8 -75 42 -111 159 -167 58
-27 102 -54 105 -65 18 -57 -82 -65 -169 -13 l-56 34 -41 -70 c-23 -38 -39
-76 -36 -84 3 -8 36 -29 73 -47 63 -29 76 -32 168 -32 108 0 163 12 216 48 45
29 79 98 79 158 0 110 -55 169 -203 215 -89 28 -115 74 -50 90 25 7 108 -10
155 -30 14 -6 24 6 52 63 20 39 36 73 36 75 0 3 -30 14 -66 26 -88 27 -219 27
-288 0z"/>
<path d="M6092 4751 c-152 -57 -236 -169 -236 -316 0 -197 160 -335 387 -335
157 0 310 96 353 220 28 84 25 182 -9 252 -34 68 -100 131 -175 166 -78 36
-239 43 -320 13z m223 -191 c92 -57 83 -203 -15 -252 -127 -64 -259 74 -192
200 10 18 31 42 48 52 39 27 116 26 159 0z"/>
<path d="M7032 4755 c-18 -8 -45 -24 -60 -36 l-27 -21 -5 29 -5 28 -110 0
-110 0 -3 -317 -2 -318 115 0 115 0 0 199 c0 186 1 200 21 225 47 59 118 72
168 30 43 -36 51 -77 51 -276 l0 -178 111 0 110 0 -3 243 -3 244 -30 49 c-44
70 -120 108 -224 112 -51 1 -87 -3 -109 -13z"/>
<path d="M8990 4754 c-19 -8 -52 -31 -72 -52 l-38 -36 0 47 0 47 -110 0 -110
0 0 -320 0 -320 110 0 110 0 0 173 c0 147 3 178 19 214 31 68 107 92 188 58
19 -8 37 -15 40 -15 10 0 84 174 79 186 -12 33 -155 45 -216 18z"/>
<path d="M9955 4748 c-22 -11 -50 -30 -62 -41 l-23 -20 0 36 0 37 -110 0 -110
0 0 -320 0 -320 110 0 110 0 0 186 c0 208 7 238 65 274 57 35 122 22 155 -32
18 -30 20 -51 20 -230 l0 -198 110 0 110 0 0 240 c0 272 -4 289 -77 349 -74
61 -219 80 -298 39z"/>
<path d="M4550 4440 l0 -320 110 0 110 0 -2 318 -3 317 -107 3 -108 3 0 -321z"/>
<path d="M5530 4440 l0 -320 110 0 110 0 0 320 0 320 -110 0 -110 0 0 -320z"/>
<path d="M9280 4440 l0 -320 110 0 110 0 0 320 0 320 -110 0 -110 0 0 -320z"/>
</g>
</svg>
